{
 "cells": [
  {
   "cell_type": "code",
   "execution_count": 1,
   "metadata": {},
   "outputs": [],
   "source": [
    "from vocal_extractor import *"
   ]
  },
  {
   "cell_type": "code",
   "execution_count": 2,
   "metadata": {},
   "outputs": [],
   "source": [
    "filename = \"video_output\"\n",
    "link = \"https://www.youtube.com/watch?v=z0GtmPnqAd8\""
   ]
  },
  {
   "cell_type": "code",
   "execution_count": 3,
   "metadata": {},
   "outputs": [
    {
     "name": "stdout",
     "output_type": "stream",
     "text": [
      "\n",
      "ffmpeg version 4.2 Copyright (c) 2000-2019 the FFmpeg developers\n",
      "  built with gcc 9.1.1 (GCC) 20190807\n",
      "  configuration: --disable-static --enable-shared --enable-gpl --enable-version3 --enable-sdl2 --enable-fontconfig --enable-gnutls --enable-iconv --enable-libass --enable-libdav1d --enable-libbluray --enable-libfreetype --enable-libmp3lame --enable-libopencore-amrnb --enable-libopencore-amrwb --enable-libopenjpeg --enable-libopus --enable-libshine --enable-libsnappy --enable-libsoxr --enable-libtheora --enable-libtwolame --enable-libvpx --enable-libwavpack --enable-libwebp --enable-libx264 --enable-libx265 --enable-libxml2 --enable-libzimg --enable-lzma --enable-zlib --enable-gmp --enable-libvidstab --enable-libvorbis --enable-libvo-amrwbenc --enable-libmysofa --enable-libspeex --enable-libxvid --enable-libaom --enable-libmfx --enable-amf --enable-ffnvcodec --enable-cuvid --enable-d3d11va --enable-nvenc --enable-nvdec --enable-dxva2 --enable-avisynth --enable-libopenmpt\n",
      "  libavutil      56. 31.100 / 56. 31.100\n",
      "  libavcodec     58. 54.100 / 58. 54.100\n",
      "  libavformat    58. 29.100 / 58. 29.100\n",
      "  libavdevice    58.  8.100 / 58.  8.100\n",
      "  libavfilter     7. 57.100 /  7. 57.100\n",
      "  libswscale      5.  5.100 /  5.  5.100\n",
      "  libswresample   3.  5.100 /  3.  5.100\n",
      "  libpostproc    55.  5.100 / 55.  5.100\n",
      "Input #0, mov,mp4,m4a,3gp,3g2,mj2, from 'video.mp4':\n",
      "  Metadata:\n",
      "    major_brand     : mp42\n",
      "    minor_version   : 0\n",
      "    compatible_brands: isommp42\n",
      "    creation_time   : 2020-05-08T08:37:15.000000Z\n",
      "  Duration: 00:15:28.73, start: 0.000000, bitrate: 480 kb/s\n",
      "    Stream #0:0(und): Video: h264 (Constrained Baseline) (avc1 / 0x31637661), yuv420p(tv, bt709), 640x360 [SAR 1:1 DAR 16:9], 382 kb/s, 23.98 fps, 23.98 tbr, 24k tbn, 47.95 tbc (default)\n",
      "    Metadata:\n",
      "      creation_time   : 2020-05-08T08:37:15.000000Z\n",
      "      handler_name    : ISO Media file produced by Google Inc. Created on: 05/08/2020.\n",
      "    Stream #0:1(und): Audio: aac (LC) (mp4a / 0x6134706D), 44100 Hz, stereo, fltp, 96 kb/s (default)\n",
      "    Metadata:\n",
      "      creation_time   : 2020-05-08T08:37:15.000000Z\n",
      "      handler_name    : ISO Media file produced by Google Inc. Created on: 05/08/2020.\n",
      "File 'part_1.mp4' already exists. Overwrite ? [y/N] Not overwriting - exiting\n",
      "\n",
      "\n",
      "ffmpeg version 4.2 Copyright (c) 2000-2019 the FFmpeg developers\n",
      "  built with gcc 9.1.1 (GCC) 20190807\n",
      "  configuration: --disable-static --enable-shared --enable-gpl --enable-version3 --enable-sdl2 --enable-fontconfig --enable-gnutls --enable-iconv --enable-libass --enable-libdav1d --enable-libbluray --enable-libfreetype --enable-libmp3lame --enable-libopencore-amrnb --enable-libopencore-amrwb --enable-libopenjpeg --enable-libopus --enable-libshine --enable-libsnappy --enable-libsoxr --enable-libtheora --enable-libtwolame --enable-libvpx --enable-libwavpack --enable-libwebp --enable-libx264 --enable-libx265 --enable-libxml2 --enable-libzimg --enable-lzma --enable-zlib --enable-gmp --enable-libvidstab --enable-libvorbis --enable-libvo-amrwbenc --enable-libmysofa --enable-libspeex --enable-libxvid --enable-libaom --enable-libmfx --enable-amf --enable-ffnvcodec --enable-cuvid --enable-d3d11va --enable-nvenc --enable-nvdec --enable-dxva2 --enable-avisynth --enable-libopenmpt\n",
      "  libavutil      56. 31.100 / 56. 31.100\n",
      "  libavcodec     58. 54.100 / 58. 54.100\n",
      "  libavformat    58. 29.100 / 58. 29.100\n",
      "  libavdevice    58.  8.100 / 58.  8.100\n",
      "  libavfilter     7. 57.100 /  7. 57.100\n",
      "  libswscale      5.  5.100 /  5.  5.100\n",
      "  libswresample   3.  5.100 /  3.  5.100\n",
      "  libpostproc    55.  5.100 / 55.  5.100\n",
      "Input #0, mov,mp4,m4a,3gp,3g2,mj2, from 'part_1.mp4':\n",
      "  Metadata:\n",
      "    major_brand     : isom\n",
      "    minor_version   : 512\n",
      "    compatible_brands: isomiso2avc1mp41\n",
      "    encoder         : Lavf58.29.100\n",
      "  Duration: 00:10:00.02, start: 0.000000, bitrate: 485 kb/s\n",
      "    Stream #0:0(und): Video: h264 (Constrained Baseline) (avc1 / 0x31637661), yuv420p(tv, bt709), 640x360 [SAR 1:1 DAR 16:9], 384 kb/s, 23.98 fps, 23.98 tbr, 24k tbn, 47.95 tbc (default)\n",
      "    Metadata:\n",
      "      handler_name    : ISO Media file produced by Google Inc. Created on: 05/08/2020.\n",
      "    Stream #0:1(und): Audio: aac (LC) (mp4a / 0x6134706D), 44100 Hz, stereo, fltp, 96 kb/s (default)\n",
      "    Metadata:\n",
      "      handler_name    : ISO Media file produced by Google Inc. Created on: 05/08/2020.\n",
      "File 'silent_video_1.mp4' already exists. Overwrite ? [y/N] Not overwriting - exiting\n",
      "\n",
      "\n",
      "ffmpeg version 4.2 Copyright (c) 2000-2019 the FFmpeg developers\n",
      "  built with gcc 9.1.1 (GCC) 20190807\n",
      "  configuration: --disable-static --enable-shared --enable-gpl --enable-version3 --enable-sdl2 --enable-fontconfig --enable-gnutls --enable-iconv --enable-libass --enable-libdav1d --enable-libbluray --enable-libfreetype --enable-libmp3lame --enable-libopencore-amrnb --enable-libopencore-amrwb --enable-libopenjpeg --enable-libopus --enable-libshine --enable-libsnappy --enable-libsoxr --enable-libtheora --enable-libtwolame --enable-libvpx --enable-libwavpack --enable-libwebp --enable-libx264 --enable-libx265 --enable-libxml2 --enable-libzimg --enable-lzma --enable-zlib --enable-gmp --enable-libvidstab --enable-libvorbis --enable-libvo-amrwbenc --enable-libmysofa --enable-libspeex --enable-libxvid --enable-libaom --enable-libmfx --enable-amf --enable-ffnvcodec --enable-cuvid --enable-d3d11va --enable-nvenc --enable-nvdec --enable-dxva2 --enable-avisynth --enable-libopenmpt\n",
      "  libavutil      56. 31.100 / 56. 31.100\n",
      "  libavcodec     58. 54.100 / 58. 54.100\n",
      "  libavformat    58. 29.100 / 58. 29.100\n",
      "  libavdevice    58.  8.100 / 58.  8.100\n",
      "  libavfilter     7. 57.100 /  7. 57.100\n",
      "  libswscale      5.  5.100 /  5.  5.100\n",
      "  libswresample   3.  5.100 /  3.  5.100\n",
      "  libpostproc    55.  5.100 / 55.  5.100\n",
      "Input #0, mov,mp4,m4a,3gp,3g2,mj2, from 'part_1.mp4':\n",
      "  Metadata:\n",
      "    major_brand     : isom\n",
      "    minor_version   : 512\n",
      "    compatible_brands: isomiso2avc1mp41\n",
      "    encoder         : Lavf58.29.100\n",
      "  Duration: 00:10:00.02, start: 0.000000, bitrate: 485 kb/s\n",
      "    Stream #0:0(und): Video: h264 (Constrained Baseline) (avc1 / 0x31637661), yuv420p(tv, bt709), 640x360 [SAR 1:1 DAR 16:9], 384 kb/s, 23.98 fps, 23.98 tbr, 24k tbn, 47.95 tbc (default)\n",
      "    Metadata:\n",
      "      handler_name    : ISO Media file produced by Google Inc. Created on: 05/08/2020.\n",
      "    Stream #0:1(und): Audio: aac (LC) (mp4a / 0x6134706D), 44100 Hz, stereo, fltp, 96 kb/s (default)\n",
      "    Metadata:\n",
      "      handler_name    : ISO Media file produced by Google Inc. Created on: 05/08/2020.\n",
      "File 'audio_1.wav' already exists. Overwrite ? [y/N] Not overwriting - exiting\n",
      "\n",
      "\n",
      "Traceback (most recent call last):\n",
      "  File \"C:\\Users\\Veda\\Anaconda3\\lib\\runpy.py\", line 193, in _run_module_as_main\n",
      "    \"__main__\", mod_spec)\n",
      "  File \"C:\\Users\\Veda\\Anaconda3\\lib\\runpy.py\", line 85, in _run_code\n",
      "    exec(code, run_globals)\n",
      "  File \"C:\\Users\\Veda\\Anaconda3\\lib\\site-packages\\spleeter\\__main__.py\", line 58, in <module>\n",
      "    entrypoint()\n",
      "  File \"C:\\Users\\Veda\\Anaconda3\\lib\\site-packages\\spleeter\\__main__.py\", line 54, in entrypoint\n",
      "    main(sys.argv)\n",
      "  File \"C:\\Users\\Veda\\Anaconda3\\lib\\site-packages\\spleeter\\__main__.py\", line 36, in main\n",
      "    enable_logging()\n",
      "  File \"C:\\Users\\Veda\\Anaconda3\\lib\\site-packages\\spleeter\\utils\\logging.py\", line 60, in enable_logging\n",
      "    tf_logger = get_tensorflow_logger()\n",
      "  File \"C:\\Users\\Veda\\Anaconda3\\lib\\site-packages\\spleeter\\utils\\logging.py\", line 27, in get_tensorflow_logger\n",
      "    from tensorflow.compat.v1 import logging\n",
      "  File \"C:\\Users\\Veda\\Anaconda3\\lib\\site-packages\\tensorflow\\__init__.py\", line 28, in <module>\n",
      "    from tensorflow.python import pywrap_tensorflow  # pylint: disable=unused-import\n",
      "  File \"C:\\Users\\Veda\\Anaconda3\\lib\\site-packages\\tensorflow\\python\\__init__.py\", line 83, in <module>\n",
      "    from tensorflow.python import keras\n",
      "  File \"C:\\Users\\Veda\\Anaconda3\\lib\\site-packages\\tensorflow\\python\\keras\\__init__.py\", line 26, in <module>\n",
      "    from tensorflow.python.keras import activations\n",
      "  File \"C:\\Users\\Veda\\Anaconda3\\lib\\site-packages\\tensorflow\\python\\keras\\activations\\__init__.py\", line 22, in <module>\n",
      "    from tensorflow.python.keras._impl.keras.activations import elu\n",
      "  File \"C:\\Users\\Veda\\Anaconda3\\lib\\site-packages\\tensorflow\\python\\keras\\_impl\\keras\\__init__.py\", line 21, in <module>\n",
      "    from tensorflow.python.keras._impl.keras import activations\n",
      "  File \"C:\\Users\\Veda\\Anaconda3\\lib\\site-packages\\tensorflow\\python\\keras\\_impl\\keras\\activations.py\", line 23, in <module>\n",
      "    from tensorflow.python.keras._impl.keras import backend as K\n",
      "  File \"C:\\Users\\Veda\\Anaconda3\\lib\\site-packages\\tensorflow\\python\\keras\\_impl\\keras\\backend.py\", line 38, in <module>\n",
      "    from tensorflow.python.layers import base as tf_base_layers\n",
      "  File \"C:\\Users\\Veda\\Anaconda3\\lib\\site-packages\\tensorflow\\python\\layers\\base.py\", line 25, in <module>\n",
      "    from tensorflow.python.keras import backend\n",
      "  File \"C:\\Users\\Veda\\Anaconda3\\lib\\site-packages\\tensorflow\\python\\keras\\backend\\__init__.py\", line 22, in <module>\n",
      "    from tensorflow.python.keras._impl.keras.backend import abs\n",
      "ImportError: cannot import name 'abs'\n",
      "\n",
      "\n",
      "ffmpeg version 4.2 Copyright (c) 2000-2019 the FFmpeg developers\n",
      "  built with gcc 9.1.1 (GCC) 20190807\n",
      "  configuration: --disable-static --enable-shared --enable-gpl --enable-version3 --enable-sdl2 --enable-fontconfig --enable-gnutls --enable-iconv --enable-libass --enable-libdav1d --enable-libbluray --enable-libfreetype --enable-libmp3lame --enable-libopencore-amrnb --enable-libopencore-amrwb --enable-libopenjpeg --enable-libopus --enable-libshine --enable-libsnappy --enable-libsoxr --enable-libtheora --enable-libtwolame --enable-libvpx --enable-libwavpack --enable-libwebp --enable-libx264 --enable-libx265 --enable-libxml2 --enable-libzimg --enable-lzma --enable-zlib --enable-gmp --enable-libvidstab --enable-libvorbis --enable-libvo-amrwbenc --enable-libmysofa --enable-libspeex --enable-libxvid --enable-libaom --enable-libmfx --enable-amf --enable-ffnvcodec --enable-cuvid --enable-d3d11va --enable-nvenc --enable-nvdec --enable-dxva2 --enable-avisynth --enable-libopenmpt\n",
      "  libavutil      56. 31.100 / 56. 31.100\n",
      "  libavcodec     58. 54.100 / 58. 54.100\n",
      "  libavformat    58. 29.100 / 58. 29.100\n",
      "  libavdevice    58.  8.100 / 58.  8.100\n",
      "  libavfilter     7. 57.100 /  7. 57.100\n",
      "  libswscale      5.  5.100 /  5.  5.100\n",
      "  libswresample   3.  5.100 /  3.  5.100\n",
      "  libpostproc    55.  5.100 / 55.  5.100\n",
      "Input #0, mov,mp4,m4a,3gp,3g2,mj2, from 'silent_video_1.mp4':\n",
      "  Metadata:\n",
      "    major_brand     : isom\n",
      "    minor_version   : 512\n",
      "    compatible_brands: isomiso2avc1mp41\n",
      "    encoder         : Lavf58.29.100\n",
      "  Duration: 00:10:00.02, start: 0.000000, bitrate: 385 kb/s\n",
      "    Stream #0:0(und): Video: h264 (Constrained Baseline) (avc1 / 0x31637661), yuv420p(tv, bt709), 640x360 [SAR 1:1 DAR 16:9], 384 kb/s, 23.98 fps, 23.98 tbr, 24k tbn, 47.95 tbc (default)\n",
      "    Metadata:\n",
      "      handler_name    : ISO Media file produced by Google Inc. Created on: 05/08/2020.\n",
      "myoutput1/audio_1/vocals.wav: No such file or directory\n",
      "\n",
      "\n",
      "ffmpeg version 4.2 Copyright (c) 2000-2019 the FFmpeg developers\n",
      "  built with gcc 9.1.1 (GCC) 20190807\n",
      "  configuration: --disable-static --enable-shared --enable-gpl --enable-version3 --enable-sdl2 --enable-fontconfig --enable-gnutls --enable-iconv --enable-libass --enable-libdav1d --enable-libbluray --enable-libfreetype --enable-libmp3lame --enable-libopencore-amrnb --enable-libopencore-amrwb --enable-libopenjpeg --enable-libopus --enable-libshine --enable-libsnappy --enable-libsoxr --enable-libtheora --enable-libtwolame --enable-libvpx --enable-libwavpack --enable-libwebp --enable-libx264 --enable-libx265 --enable-libxml2 --enable-libzimg --enable-lzma --enable-zlib --enable-gmp --enable-libvidstab --enable-libvorbis --enable-libvo-amrwbenc --enable-libmysofa --enable-libspeex --enable-libxvid --enable-libaom --enable-libmfx --enable-amf --enable-ffnvcodec --enable-cuvid --enable-d3d11va --enable-nvenc --enable-nvdec --enable-dxva2 --enable-avisynth --enable-libopenmpt\n",
      "  libavutil      56. 31.100 / 56. 31.100\n",
      "  libavcodec     58. 54.100 / 58. 54.100\n",
      "  libavformat    58. 29.100 / 58. 29.100\n",
      "  libavdevice    58.  8.100 / 58.  8.100\n",
      "  libavfilter     7. 57.100 /  7. 57.100\n",
      "  libswscale      5.  5.100 /  5.  5.100\n",
      "  libswresample   3.  5.100 /  3.  5.100\n",
      "  libpostproc    55.  5.100 / 55.  5.100\n",
      "Input #0, mov,mp4,m4a,3gp,3g2,mj2, from 'video.mp4':\n",
      "  Metadata:\n",
      "    major_brand     : mp42\n",
      "    minor_version   : 0\n",
      "    compatible_brands: isommp42\n",
      "    creation_time   : 2020-05-08T08:37:15.000000Z\n",
      "  Duration: 00:15:28.73, start: 0.000000, bitrate: 480 kb/s\n",
      "    Stream #0:0(und): Video: h264 (Constrained Baseline) (avc1 / 0x31637661), yuv420p(tv, bt709), 640x360 [SAR 1:1 DAR 16:9], 382 kb/s, 23.98 fps, 23.98 tbr, 24k tbn, 47.95 tbc (default)\n",
      "    Metadata:\n",
      "      creation_time   : 2020-05-08T08:37:15.000000Z\n",
      "      handler_name    : ISO Media file produced by Google Inc. Created on: 05/08/2020.\n",
      "    Stream #0:1(und): Audio: aac (LC) (mp4a / 0x6134706D), 44100 Hz, stereo, fltp, 96 kb/s (default)\n",
      "    Metadata:\n",
      "      creation_time   : 2020-05-08T08:37:15.000000Z\n",
      "      handler_name    : ISO Media file produced by Google Inc. Created on: 05/08/2020.\n",
      "File 'part_2.mp4' already exists. Overwrite ? [y/N] Not overwriting - exiting\n",
      "\n",
      "\n",
      "ffmpeg version 4.2 Copyright (c) 2000-2019 the FFmpeg developers\n",
      "  built with gcc 9.1.1 (GCC) 20190807\n",
      "  configuration: --disable-static --enable-shared --enable-gpl --enable-version3 --enable-sdl2 --enable-fontconfig --enable-gnutls --enable-iconv --enable-libass --enable-libdav1d --enable-libbluray --enable-libfreetype --enable-libmp3lame --enable-libopencore-amrnb --enable-libopencore-amrwb --enable-libopenjpeg --enable-libopus --enable-libshine --enable-libsnappy --enable-libsoxr --enable-libtheora --enable-libtwolame --enable-libvpx --enable-libwavpack --enable-libwebp --enable-libx264 --enable-libx265 --enable-libxml2 --enable-libzimg --enable-lzma --enable-zlib --enable-gmp --enable-libvidstab --enable-libvorbis --enable-libvo-amrwbenc --enable-libmysofa --enable-libspeex --enable-libxvid --enable-libaom --enable-libmfx --enable-amf --enable-ffnvcodec --enable-cuvid --enable-d3d11va --enable-nvenc --enable-nvdec --enable-dxva2 --enable-avisynth --enable-libopenmpt\n",
      "  libavutil      56. 31.100 / 56. 31.100\n",
      "  libavcodec     58. 54.100 / 58. 54.100\n",
      "  libavformat    58. 29.100 / 58. 29.100\n",
      "  libavdevice    58.  8.100 / 58.  8.100\n",
      "  libavfilter     7. 57.100 /  7. 57.100\n",
      "  libswscale      5.  5.100 /  5.  5.100\n",
      "  libswresample   3.  5.100 /  3.  5.100\n",
      "  libpostproc    55.  5.100 / 55.  5.100\n",
      "Input #0, mov,mp4,m4a,3gp,3g2,mj2, from 'part_2.mp4':\n",
      "  Metadata:\n",
      "    major_brand     : isom\n",
      "    minor_version   : 512\n",
      "    compatible_brands: isomiso2avc1mp41\n",
      "    encoder         : Lavf58.29.100\n",
      "  Duration: 00:05:28.01, start: 0.002993, bitrate: 475 kb/s\n",
      "    Stream #0:0(und): Video: h264 (Constrained Baseline) (avc1 / 0x31637661), yuv420p(tv, bt709), 640x360 [SAR 1:1 DAR 16:9], 375 kb/s, 23.98 fps, 23.98 tbr, 24k tbn, 47.95 tbc (default)\n",
      "    Metadata:\n",
      "      handler_name    : ISO Media file produced by Google Inc. Created on: 05/08/2020.\n",
      "    Stream #0:1(und): Audio: aac (LC) (mp4a / 0x6134706D), 44100 Hz, stereo, fltp, 96 kb/s (default)\n",
      "    Metadata:\n",
      "      handler_name    : ISO Media file produced by Google Inc. Created on: 05/08/2020.\n",
      "File 'silent_video_2.mp4' already exists. Overwrite ? [y/N] Not overwriting - exiting\n",
      "\n",
      "\n",
      "ffmpeg version 4.2 Copyright (c) 2000-2019 the FFmpeg developers\n",
      "  built with gcc 9.1.1 (GCC) 20190807\n",
      "  configuration: --disable-static --enable-shared --enable-gpl --enable-version3 --enable-sdl2 --enable-fontconfig --enable-gnutls --enable-iconv --enable-libass --enable-libdav1d --enable-libbluray --enable-libfreetype --enable-libmp3lame --enable-libopencore-amrnb --enable-libopencore-amrwb --enable-libopenjpeg --enable-libopus --enable-libshine --enable-libsnappy --enable-libsoxr --enable-libtheora --enable-libtwolame --enable-libvpx --enable-libwavpack --enable-libwebp --enable-libx264 --enable-libx265 --enable-libxml2 --enable-libzimg --enable-lzma --enable-zlib --enable-gmp --enable-libvidstab --enable-libvorbis --enable-libvo-amrwbenc --enable-libmysofa --enable-libspeex --enable-libxvid --enable-libaom --enable-libmfx --enable-amf --enable-ffnvcodec --enable-cuvid --enable-d3d11va --enable-nvenc --enable-nvdec --enable-dxva2 --enable-avisynth --enable-libopenmpt\n",
      "  libavutil      56. 31.100 / 56. 31.100\n",
      "  libavcodec     58. 54.100 / 58. 54.100\n",
      "  libavformat    58. 29.100 / 58. 29.100\n",
      "  libavdevice    58.  8.100 / 58.  8.100\n",
      "  libavfilter     7. 57.100 /  7. 57.100\n",
      "  libswscale      5.  5.100 /  5.  5.100\n",
      "  libswresample   3.  5.100 /  3.  5.100\n",
      "  libpostproc    55.  5.100 / 55.  5.100\n",
      "Input #0, mov,mp4,m4a,3gp,3g2,mj2, from 'part_2.mp4':\n",
      "  Metadata:\n",
      "    major_brand     : isom\n",
      "    minor_version   : 512\n",
      "    compatible_brands: isomiso2avc1mp41\n",
      "    encoder         : Lavf58.29.100\n",
      "  Duration: 00:05:28.01, start: 0.002993, bitrate: 475 kb/s\n",
      "    Stream #0:0(und): Video: h264 (Constrained Baseline) (avc1 / 0x31637661), yuv420p(tv, bt709), 640x360 [SAR 1:1 DAR 16:9], 375 kb/s, 23.98 fps, 23.98 tbr, 24k tbn, 47.95 tbc (default)\n",
      "    Metadata:\n",
      "      handler_name    : ISO Media file produced by Google Inc. Created on: 05/08/2020.\n",
      "    Stream #0:1(und): Audio: aac (LC) (mp4a / 0x6134706D), 44100 Hz, stereo, fltp, 96 kb/s (default)\n",
      "    Metadata:\n",
      "      handler_name    : ISO Media file produced by Google Inc. Created on: 05/08/2020.\n",
      "File 'audio_2.wav' already exists. Overwrite ? [y/N] Not overwriting - exiting\n",
      "\n",
      "\n",
      "Traceback (most recent call last):\n",
      "  File \"C:\\Users\\Veda\\Anaconda3\\lib\\runpy.py\", line 193, in _run_module_as_main\n",
      "    \"__main__\", mod_spec)\n",
      "  File \"C:\\Users\\Veda\\Anaconda3\\lib\\runpy.py\", line 85, in _run_code\n",
      "    exec(code, run_globals)\n",
      "  File \"C:\\Users\\Veda\\Anaconda3\\lib\\site-packages\\spleeter\\__main__.py\", line 58, in <module>\n",
      "    entrypoint()\n",
      "  File \"C:\\Users\\Veda\\Anaconda3\\lib\\site-packages\\spleeter\\__main__.py\", line 54, in entrypoint\n",
      "    main(sys.argv)\n",
      "  File \"C:\\Users\\Veda\\Anaconda3\\lib\\site-packages\\spleeter\\__main__.py\", line 36, in main\n",
      "    enable_logging()\n",
      "  File \"C:\\Users\\Veda\\Anaconda3\\lib\\site-packages\\spleeter\\utils\\logging.py\", line 60, in enable_logging\n",
      "    tf_logger = get_tensorflow_logger()\n",
      "  File \"C:\\Users\\Veda\\Anaconda3\\lib\\site-packages\\spleeter\\utils\\logging.py\", line 27, in get_tensorflow_logger\n",
      "    from tensorflow.compat.v1 import logging\n",
      "  File \"C:\\Users\\Veda\\Anaconda3\\lib\\site-packages\\tensorflow\\__init__.py\", line 28, in <module>\n",
      "    from tensorflow.python import pywrap_tensorflow  # pylint: disable=unused-import\n",
      "  File \"C:\\Users\\Veda\\Anaconda3\\lib\\site-packages\\tensorflow\\python\\__init__.py\", line 83, in <module>\n",
      "    from tensorflow.python import keras\n",
      "  File \"C:\\Users\\Veda\\Anaconda3\\lib\\site-packages\\tensorflow\\python\\keras\\__init__.py\", line 26, in <module>\n",
      "    from tensorflow.python.keras import activations\n",
      "  File \"C:\\Users\\Veda\\Anaconda3\\lib\\site-packages\\tensorflow\\python\\keras\\activations\\__init__.py\", line 22, in <module>\n",
      "    from tensorflow.python.keras._impl.keras.activations import elu\n",
      "  File \"C:\\Users\\Veda\\Anaconda3\\lib\\site-packages\\tensorflow\\python\\keras\\_impl\\keras\\__init__.py\", line 21, in <module>\n",
      "    from tensorflow.python.keras._impl.keras import activations\n",
      "  File \"C:\\Users\\Veda\\Anaconda3\\lib\\site-packages\\tensorflow\\python\\keras\\_impl\\keras\\activations.py\", line 23, in <module>\n",
      "    from tensorflow.python.keras._impl.keras import backend as K\n",
      "  File \"C:\\Users\\Veda\\Anaconda3\\lib\\site-packages\\tensorflow\\python\\keras\\_impl\\keras\\backend.py\", line 38, in <module>\n",
      "    from tensorflow.python.layers import base as tf_base_layers\n",
      "  File \"C:\\Users\\Veda\\Anaconda3\\lib\\site-packages\\tensorflow\\python\\layers\\base.py\", line 25, in <module>\n",
      "    from tensorflow.python.keras import backend\n",
      "  File \"C:\\Users\\Veda\\Anaconda3\\lib\\site-packages\\tensorflow\\python\\keras\\backend\\__init__.py\", line 22, in <module>\n",
      "    from tensorflow.python.keras._impl.keras.backend import abs\n",
      "ImportError: cannot import name 'abs'\n",
      "\n",
      "\n",
      "ffmpeg version 4.2 Copyright (c) 2000-2019 the FFmpeg developers\n",
      "  built with gcc 9.1.1 (GCC) 20190807\n",
      "  configuration: --disable-static --enable-shared --enable-gpl --enable-version3 --enable-sdl2 --enable-fontconfig --enable-gnutls --enable-iconv --enable-libass --enable-libdav1d --enable-libbluray --enable-libfreetype --enable-libmp3lame --enable-libopencore-amrnb --enable-libopencore-amrwb --enable-libopenjpeg --enable-libopus --enable-libshine --enable-libsnappy --enable-libsoxr --enable-libtheora --enable-libtwolame --enable-libvpx --enable-libwavpack --enable-libwebp --enable-libx264 --enable-libx265 --enable-libxml2 --enable-libzimg --enable-lzma --enable-zlib --enable-gmp --enable-libvidstab --enable-libvorbis --enable-libvo-amrwbenc --enable-libmysofa --enable-libspeex --enable-libxvid --enable-libaom --enable-libmfx --enable-amf --enable-ffnvcodec --enable-cuvid --enable-d3d11va --enable-nvenc --enable-nvdec --enable-dxva2 --enable-avisynth --enable-libopenmpt\n",
      "  libavutil      56. 31.100 / 56. 31.100\n",
      "  libavcodec     58. 54.100 / 58. 54.100\n",
      "  libavformat    58. 29.100 / 58. 29.100\n",
      "  libavdevice    58.  8.100 / 58.  8.100\n",
      "  libavfilter     7. 57.100 /  7. 57.100\n",
      "  libswscale      5.  5.100 /  5.  5.100\n",
      "  libswresample   3.  5.100 /  3.  5.100\n",
      "  libpostproc    55.  5.100 / 55.  5.100\n",
      "Input #0, mov,mp4,m4a,3gp,3g2,mj2, from 'silent_video_2.mp4':\n",
      "  Metadata:\n",
      "    major_brand     : isom\n",
      "    minor_version   : 512\n",
      "    compatible_brands: isomiso2avc1mp41\n",
      "    encoder         : Lavf58.29.100\n",
      "  Duration: 00:05:27.58, start: 0.430000, bitrate: 376 kb/s\n",
      "    Stream #0:0(und): Video: h264 (Constrained Baseline) (avc1 / 0x31637661), yuv420p(tv, bt709), 640x360 [SAR 1:1 DAR 16:9], 375 kb/s, 23.98 fps, 23.98 tbr, 24k tbn, 47.95 tbc (default)\n",
      "    Metadata:\n",
      "      handler_name    : ISO Media file produced by Google Inc. Created on: 05/08/2020.\n",
      "myoutput2/audio_2/vocals.wav: No such file or directory\n",
      "\n",
      "Done!\n"
     ]
    }
   ],
   "source": [
    "extract_vocals(link, filename)"
   ]
  },
  {
   "cell_type": "code",
   "execution_count": null,
   "metadata": {},
   "outputs": [],
   "source": []
  }
 ],
 "metadata": {
  "kernelspec": {
   "display_name": "new3",
   "language": "python",
   "name": "new3"
  },
  "language_info": {
   "codemirror_mode": {
    "name": "ipython",
    "version": 3
   },
   "file_extension": ".py",
   "mimetype": "text/x-python",
   "name": "python",
   "nbconvert_exporter": "python",
   "pygments_lexer": "ipython3",
   "version": "3.6.8"
  }
 },
 "nbformat": 4,
 "nbformat_minor": 4
}
